<?plantuml 1.2026.1?><svg xmlns="http://www.w3.org/2000/svg" xmlns:xlink="http://www.w3.org/1999/xlink" contentStyleType="text/css" data-diagram-type="SEQUENCE" height="298px" preserveAspectRatio="none" style="width:387px;height:298px;background:#FFFFFF;" version="1.1" viewBox="0 0 387 298" width="387px" zoomAndPan="magnify"><defs/><g><g class="participant-lifeline" data-entity-uid="part1" data-qualified-name="Utilisateur" id="part1-lifeline"><g><title>Utilisateur</title><rect fill="#000000" fill-opacity="0.00000" height="136.5313" width="8" x="40.0049" y="81.2969"/><line style="stroke:#181818;stroke-width:0.5;stroke-dasharray:5,5;" x1="44" x2="44" y1="81.2969" y2="217.8281"/></g></g><g class="participant-lifeline" data-entity-uid="part2" data-qualified-name="Web" id="part2-lifeline"><g><title>App Web</title><rect fill="#000000" fill-opacity="0.00000" height="136.5313" width="8" x="212.1909" y="81.2969"/><line style="stroke:#181818;stroke-width:0.5;stroke-dasharray:5,5;" x1="215.6191" x2="215.6191" y1="81.2969" y2="217.8281"/></g></g><g class="participant-lifeline" data-entity-uid="part3" data-qualified-name="API" id="part3-lifeline"><g><title>API FRACTIS</title><rect fill="#000000" fill-opacity="0.00000" height="136.5313" width="8" x="327.686" y="81.2969"/><line style="stroke:#181818;stroke-width:0.5;stroke-dasharray:5,5;" x1="331.0366" x2="331.0366" y1="81.2969" y2="217.8281"/></g></g><g class="participant participant-head" data-entity-uid="part1" data-qualified-name="Utilisateur" id="part1-head"><text fill="#000000" font-family="sans-serif" font-size="14" lengthAdjust="spacing" textLength="72.0098" x="5" y="77.9951">Utilisateur</text><ellipse cx="44.0049" cy="13.5" fill="#E2E2F0" rx="8" ry="8" style="stroke:#181818;stroke-width:0.5;"/><path d="M44.0049,21.5 L44.0049,48.5 M31.0049,29.5 L57.0049,29.5 M44.0049,48.5 L31.0049,63.5 M44.0049,48.5 L57.0049,63.5" fill="none" style="stroke:#181818;stroke-width:0.5;"/></g><g class="participant participant-tail" data-entity-uid="part1" data-qualified-name="Utilisateur" id="part1-tail"><text fill="#000000" font-family="sans-serif" font-size="14" lengthAdjust="spacing" textLength="72.0098" x="5" y="229.8232">Utilisateur</text><ellipse cx="44.0049" cy="241.625" fill="#E2E2F0" rx="8" ry="8" style="stroke:#181818;stroke-width:0.5;"/><path d="M44.0049,249.625 L44.0049,276.625 M31.0049,257.625 L57.0049,257.625 M44.0049,276.625 L31.0049,291.625 M44.0049,276.625 L57.0049,291.625" fill="none" style="stroke:#181818;stroke-width:0.5;"/></g><g class="participant participant-head" data-entity-uid="part2" data-qualified-name="Web" id="part2-head"><rect fill="#E2E2F0" height="30.2969" rx="2.5" ry="2.5" style="stroke:#181818;stroke-width:0.5;" width="77.1436" x="177.6191" y="50"/><text fill="#000000" font-family="sans-serif" font-size="14" lengthAdjust="spacing" textLength="63.1436" x="184.6191" y="69.9951">App Web</text></g><g class="participant participant-tail" data-entity-uid="part2" data-qualified-name="Web" id="part2-tail"><rect fill="#E2E2F0" height="30.2969" rx="2.5" ry="2.5" style="stroke:#181818;stroke-width:0.5;" width="77.1436" x="177.6191" y="216.8281"/><text fill="#000000" font-family="sans-serif" font-size="14" lengthAdjust="spacing" textLength="63.1436" x="184.6191" y="236.8232">App Web</text></g><g class="participant participant-head" data-entity-uid="part3" data-qualified-name="API" id="part3-head"><rect fill="#E2E2F0" height="30.2969" rx="2.5" ry="2.5" style="stroke:#181818;stroke-width:0.5;" width="99.2988" x="282.0366" y="50"/><text fill="#000000" font-family="sans-serif" font-size="14" lengthAdjust="spacing" textLength="85.2988" x="289.0366" y="69.9951">API FRACTIS</text></g><g class="participant participant-tail" data-entity-uid="part3" data-qualified-name="API" id="part3-tail"><rect fill="#E2E2F0" height="30.2969" rx="2.5" ry="2.5" style="stroke:#181818;stroke-width:0.5;" width="99.2988" x="282.0366" y="216.8281"/><text fill="#000000" font-family="sans-serif" font-size="14" lengthAdjust="spacing" textLength="85.2988" x="289.0366" y="236.8232">API FRACTIS</text></g><g class="message" data-entity-1="part1" data-entity-2="part2" id="msg1"><polygon fill="#181818" points="204.1909,108.4297,214.1909,112.4297,204.1909,116.4297,208.1909,112.4297" style="stroke:#181818;stroke-width:1;"/><line style="stroke:#181818;stroke-width:1;" x1="44.0049" x2="210.1909" y1="112.4297" y2="112.4297"/><text fill="#000000" font-family="sans-serif" font-size="13" lengthAdjust="spacing" textLength="125.3726" x="51.0049" y="107.3638">Clic Bouton "Login"</text></g><g class="message" data-entity-1="part2" data-entity-2="part3" id="msg2"><polygon fill="#181818" points="319.686,137.5625,329.686,141.5625,319.686,145.5625,323.686,141.5625" style="stroke:#181818;stroke-width:1;"/><line style="stroke:#181818;stroke-width:1;" x1="216.1909" x2="325.686" y1="141.5625" y2="141.5625"/><text fill="#000000" font-family="sans-serif" font-size="13" lengthAdjust="spacing" textLength="74.4453" x="223.1909" y="136.4966">POST /login</text></g><g class="message" data-entity-1="part3" data-entity-2="part2" id="msg3"><polygon fill="#181818" points="227.1909,166.6953,217.1909,170.6953,227.1909,174.6953,223.1909,170.6953" style="stroke:#181818;stroke-width:1;"/><line style="stroke:#181818;stroke-width:1;stroke-dasharray:2,2;" x1="221.1909" x2="330.686" y1="170.6953" y2="170.6953"/><text fill="#000000" font-family="sans-serif" font-size="13" lengthAdjust="spacing" textLength="91.4951" x="233.1909" y="165.6294">200 OK Token</text></g><g class="message" data-entity-1="part2" data-entity-2="part1" id="msg4"><polygon fill="#181818" points="55.0049,195.8281,45.0049,199.8281,55.0049,203.8281,51.0049,199.8281" style="stroke:#181818;stroke-width:1;"/><line style="stroke:#181818;stroke-width:1;stroke-dasharray:2,2;" x1="49.0049" x2="215.1909" y1="199.8281" y2="199.8281"/><text fill="#000000" font-family="sans-serif" font-size="13" lengthAdjust="spacing" textLength="148.186" x="61.0049" y="194.7622">Affiche Vue Connect&#233;e</text></g><?plantuml-src NOr12i8m44NtESKd-s9nsOLG2q9HQB5Lrp5CTR0aePqUodDuCHi5AQw6cVVV7sF53pW9zpmQeMbGmGp2beDn0fs7W0jTDSmOvn-iI-oEUT6MpISmxqejgf1ieeGCHSyMMp-9Tz07VsEdLIHp89PagAkcnQgFHCLBybFNQOfgZzO_o7sT6IsVPCYxZksTS9u8XNUEhBoUz0O0?></g></svg>